<svg width="24" height="24" viewBox="0 0 24 24" fill="none" xmlns="http://www.w3.org/2000/svg">
<path d="M15 7C15 8.65685 13.6569 10 12 10C10.3431 10 9 8.65685 9 7C9 5.34315 10.3431 4 12 4C13.6569 4 15 5.34315 15 7Z" fill="#F0F1F5"/>
<path fill-rule="evenodd" clip-rule="evenodd" d="M12 21C16.9706 21 21 16.9706 21 12C21 7.02944 16.9706 3 12 3C7.02944 3 3 7.02944 3 12C3 16.9706 7.02944 21 12 21ZM12 23C18.0751 23 23 18.0751 23 12C23 5.92487 18.0751 1 12 1C5.92487 1 1 5.92487 1 12C1 18.0751 5.92487 23 12 23Z" fill="#C1C6DA"/>
<path d="M12 13.5C11.1716 13.5 10.5 14.1716 10.5 15C10.5 15.8284 11.1716 16.5 12 16.5C12.8284 16.5 13.5 15.8284 13.5 15C13.5 14.1716 12.8284 13.5 12 13.5Z" fill="#737685"/>
<path d="M12 17.5C11.1716 17.5 10.5 18.1716 10.5 19C10.5 19.8284 11.1716 20.5 12 20.5C12.8284 20.5 13.5 19.8284 13.5 19C13.5 18.1716 12.8284 17.5 12 17.5Z" fill="#737685"/>
<path d="M6.16357 10.1405C6.34937 9.95315 6.65063 9.95316 6.83643 10.1405L8.85969 12.1809C9.15942 12.4832 8.94714 13 8.52326 13H4.47674C4.05286 13 3.84058 12.4832 4.14031 12.1809L6.16357 10.1405Z" fill="#737685"/>
<path d="M17.1636 10.1405C17.3494 9.95315 17.6506 9.95316 17.8364 10.1405L19.8597 12.1809C20.1594 12.4832 19.9471 13 19.5233 13H15.4767C15.0529 13 14.8406 12.4832 15.1403 12.1809L17.1636 10.1405Z" fill="#151B2A"/>
</svg>
