<svg xmlns="http://www.w3.org/2000/svg" width="52" height="56" viewBox="0 0 52 56" fill="none">
  <g filter="url(#filter0_d_956_40588)">
    <path d="M32 33.7884V37.2956C29.8141 38.4492 27.7766 37.9677 25.341 37.3923C23.0698 36.8556 20.4524 36.2372 17.046 36.7866C17.2826 35.5382 18.082 34.5199 19.4442 33.7315C21.3978 32.6009 23.6574 32.9796 26.1439 33.3964C27.9826 33.7045 29.9453 34.0335 32 33.7884Z" fill="#93B9ED"/>
    <path d="M32 26.34V30.5989C30.2725 30.9102 28.5749 30.6274 26.8154 30.3342C23.3219 29.7522 19.5846 29.1296 14.8855 33.0355C15.1331 30.1136 16.6119 27.8685 19.3219 26.3001C21.0918 25.2758 23.4354 25.5893 26.1224 25.9488C27.9473 26.1929 29.9305 26.4582 32 26.34Z" fill="#93B9ED"/>
    <path d="M32 18.0792V23.0073C30.112 23.2396 28.2007 23.0172 26.2963 22.7956C21.4421 22.2308 16.6322 21.6712 12.3649 28.6593C11.2037 24.9692 12.8662 20.8669 16.6083 18.7012C20.5173 16.4389 23.9197 16.9887 27.4438 17.5581C28.9255 17.7975 30.4286 18.0403 32 18.0792Z" fill="#93B9ED"/>
    <path d="M32 42.9758C30.1233 43.6391 28.1038 44 26 44C16.0589 44 8 35.9411 8 26C8 16.0589 16.0589 8 26 8C28.1038 8 30.1233 8.36093 32 9.02423V4.82813C30.0927 4.28867 28.08 4 26 4C13.8497 4 4 13.8497 4 26C4 38.1503 13.8497 48 26 48C28.08 48 30.0927 47.7113 32 47.1719V42.9758Z" fill="#93B9ED"/>
    <path d="M40 37.3147V42.9714C44.886 38.9362 48 32.8317 48 26C48 19.1683 44.886 13.0638 40 9.02865V14.6853C42.5016 17.7768 44 21.7134 44 26C44 30.2866 42.5016 34.2232 40 37.3147Z" fill="#93B9ED"/>
    <path d="M32 2H36V50H32V2Z" fill="#93B9ED"/>
  </g>
  <defs>
    <filter id="filter0_d_956_40588" x="0" y="0" width="52" height="56" filterUnits="userSpaceOnUse" color-interpolation-filters="sRGB">
      <feFlood flood-opacity="0" result="BackgroundImageFix"/>
      <feColorMatrix in="SourceAlpha" type="matrix" values="0 0 0 0 0 0 0 0 0 0 0 0 0 0 0 0 0 0 127 0" result="hardAlpha"/>
      <feOffset dy="2"/>
      <feGaussianBlur stdDeviation="2"/>
      <feComposite in2="hardAlpha" operator="out"/>
      <feColorMatrix type="matrix" values="0 0 0 0 0.0705882 0 0 0 0 0.0745098 0 0 0 0 0.0784314 0 0 0 0.16 0"/>
      <feBlend mode="normal" in2="BackgroundImageFix" result="effect1_dropShadow_956_40588"/>
      <feBlend mode="normal" in="SourceGraphic" in2="effect1_dropShadow_956_40588" result="shape"/>
    </filter>
  </defs>
</svg>