<svg
                  xmlns="http://www.w3.org/2000/svg"
                  width="24"
                  height="24"
                  viewBox="0 0 24 24"
                  fill="none"
                >
                  <path
                    d="M11.5757 2.42378C11.8101 2.18947 12.19 2.18947 12.4243 2.42378L14.9757 4.97526C15.3537 5.35323 15.086 5.99952 14.5515 5.99952H9.44854C8.91399 5.99952 8.64629 5.35323 9.02427 4.97525L11.5757 2.42378Z"
                    fill="#FF9933"
                  />
                  <path
                    d="M21.5757 11.5753C21.8101 11.8096 21.8101 12.1895 21.5757 12.4238L19.0243 14.9753C18.6463 15.3532 18 15.0855 18 14.551V9.44805C18 8.9135 18.6463 8.6458 19.0243 9.02378L21.5757 11.5753Z"
                    fill="#FF9933"
                  />
                  <path
                    d="M11.5757 21.5753C11.8101 21.8096 12.19 21.8096 12.4243 21.5753L14.9757 19.0238C15.3537 18.6458 15.086 17.9995 14.5515 17.9995H9.44854C8.91399 17.9995 8.64629 18.6458 9.02427 19.0238L11.5757 21.5753Z"
                    fill="#FF9933"
                  />
                  <path
                    d="M2.42427 11.5753C2.18996 11.8096 2.18996 12.1895 2.42427 12.4238L4.97574 14.9753C5.35372 15.3532 6.00001 15.0855 6.00001 14.551L6.00001 9.44805C6.00001 8.9135 5.35372 8.6458 4.97574 9.02378L2.42427 11.5753Z"
                    fill="#FF9933"
                  />
                  <circle cx="12" cy="12" r="4" fill="#FF9933" />
                </svg>