<svg
                  xmlns="http://www.w3.org/2000/svg"
                  width="24"
                  height="24"
                  viewBox="0 0 24 24"
                  fill="none"
                >
                  <circle cx="12" cy="12" r="4" fill="#FF9933" />
                  <path
                    d="M11.5757 5.57574C11.8101 5.81005 12.1899 5.81005 12.4243 5.57574L14.9757 3.02426C15.3537 2.64628 15.086 2 14.5515 2H9.44853C8.91399 2 8.64629 2.64629 9.02426 3.02426L11.5757 5.57574Z"
                    fill="#0C2A55"
                  />
                  <path
                    d="M18.4243 11.5757C18.1899 11.8101 18.19 12.1899 18.4243 12.4243L20.9757 14.9757C21.3537 15.3537 22 15.086 22 14.5515V9.44853C22 8.91399 21.3537 8.64629 20.9757 9.02426L18.4243 11.5757Z"
                    fill="#0C2A55"
                  />
                  <path
                    d="M11.5757 18.4243C11.8101 18.1899 12.1899 18.19 12.4243 18.4243L14.9757 20.9757C15.3537 21.3537 15.086 22 14.5515 22H9.44853C8.91399 22 8.64629 21.3537 9.02426 20.9757L11.5757 18.4243Z"
                    fill="#0C2A55"
                  />
                  <path
                    d="M5.57574 11.5757C5.81005 11.8101 5.81005 12.1899 5.57574 12.4243L3.02426 14.9757C2.64628 15.3537 2 15.086 2 14.5515L2 9.44853C2 8.91399 2.64629 8.64629 3.02426 9.02426L5.57574 11.5757Z"
                    fill="#0C2A55"
                  />
                </svg>