<svg
            xmlns="http://www.w3.org/2000/svg"
            width="16"
            height="16"
            viewBox="0 0 16 16"
            fill="none"
          >
            <path
              d="M5.33337 11.9997L8.00004 9.96634L10.6667 11.9997L9.66671 8.69967L12.3334 6.79967H9.06671L8.00004 3.33301L6.93337 6.79967H3.66671L6.33337 8.69967L5.33337 11.9997ZM8.00004 14.6663C7.07782 14.6663 6.21115 14.4913 5.40004 14.1413C4.58893 13.7913 3.88337 13.3163 3.28337 12.7163C2.68337 12.1163 2.20837 11.4108 1.85837 10.5997C1.50837 9.78856 1.33337 8.9219 1.33337 7.99967C1.33337 7.07745 1.50837 6.21079 1.85837 5.39967C2.20837 4.58856 2.68337 3.88301 3.28337 3.28301C3.88337 2.68301 4.58893 2.20801 5.40004 1.85801C6.21115 1.50801 7.07782 1.33301 8.00004 1.33301C8.92226 1.33301 9.78893 1.50801 10.6 1.85801C11.4112 2.20801 12.1167 2.68301 12.7167 3.28301C13.3167 3.88301 13.7917 4.58856 14.1417 5.39967C14.4917 6.21079 14.6667 7.07745 14.6667 7.99967C14.6667 8.9219 14.4917 9.78856 14.1417 10.5997C13.7917 11.4108 13.3167 12.1163 12.7167 12.7163C12.1167 13.3163 11.4112 13.7913 10.6 14.1413C9.78893 14.4913 8.92226 14.6663 8.00004 14.6663ZM8.00004 13.333C9.48893 13.333 10.75 12.8163 11.7834 11.783C12.8167 10.7497 13.3334 9.48856 13.3334 7.99967C13.3334 6.51079 12.8167 5.24967 11.7834 4.21634C10.75 3.18301 9.48893 2.66634 8.00004 2.66634C6.51115 2.66634 5.25004 3.18301 4.21671 4.21634C3.18337 5.24967 2.66671 6.51079 2.66671 7.99967C2.66671 9.48856 3.18337 10.7497 4.21671 11.783C5.25004 12.8163 6.51115 13.333 8.00004 13.333Z"
              fill="#31363F"
            />
          </svg>